<?xml version="1.0" encoding="UTF-8"?>
<svg version="1.1" xmlns="http://www.w3.org/2000/svg" width="64" height="64">
<path d="M0 0 C8.59690602 5.14071745 13.94153152 11.74982365 16.91796875 21.33203125 C18.80901574 31.16173094 17.22034146 40.59308425 11.6171875 48.89453125 C6.32533184 55.37544759 0.16586625 58.76502375 -7.6875 61.3828125 C-19.08674936 62.28704424 -27.53858943 61.03895859 -36.5 53.7578125 C-42.43994027 48.14378046 -46.18555523 40.92066218 -46.92578125 32.75390625 C-47.17358531 22.95912474 -45.34129663 15.19743185 -39.0625 7.5078125 C-29.08670072 -2.93589482 -13.19174363 -6.20532677 0 0 Z " fill="#A92121" transform="translate(46.6875,2.6171875)"/>
<path d="M0 0 C6.46872635 4.5709247 11.15051058 9.73738158 13.18359375 17.54296875 C14.20075628 26.20040888 13.42890621 34.0075942 8.296875 41.1796875 C3.76640726 46.59569169 -0.79370513 50.90066168 -7.81640625 52.54296875 C-9.79640625 52.54296875 -11.77640625 52.54296875 -13.81640625 52.54296875 C-13.81640625 46.27296875 -13.81640625 40.00296875 -13.81640625 33.54296875 C-13.15640625 33.54296875 -12.49640625 33.54296875 -11.81640625 33.54296875 C-11.81640625 38.82296875 -11.81640625 44.10296875 -11.81640625 49.54296875 C-0.95007414 46.16681063 -0.95007414 46.16681063 6.65234375 38.09375 C10.54817102 30.33456068 11.3953122 24.25132611 9.05859375 15.91796875 C6.58488429 9.35576727 2.95772411 5.10441179 -3.44140625 2.16796875 C-6.24759346 1.03564759 -8.85603144 0.28306245 -11.81640625 -0.45703125 C-11.81640625 5.48296875 -11.81640625 11.42296875 -11.81640625 17.54296875 C-10.16640625 17.87296875 -8.51640625 18.20296875 -6.81640625 18.54296875 C-4.50390625 20.10546875 -4.50390625 20.10546875 -2.81640625 21.54296875 C-3.12890625 24.91796875 -3.12890625 24.91796875 -3.81640625 28.54296875 C-7.23734867 30.82359703 -8.49827847 30.76221882 -12.50390625 30.66796875 C-13.49777344 30.64992187 -14.49164063 30.631875 -15.515625 30.61328125 C-16.65451172 30.57847656 -16.65451172 30.57847656 -17.81640625 30.54296875 C-17.81640625 29.55296875 -17.81640625 28.56296875 -17.81640625 27.54296875 C-19.79640625 27.87296875 -21.77640625 28.20296875 -23.81640625 28.54296875 C-24.14640625 29.53296875 -24.47640625 30.52296875 -24.81640625 31.54296875 C-25.80640625 31.54296875 -26.79640625 31.54296875 -27.81640625 31.54296875 C-27.81640625 30.88296875 -27.81640625 30.22296875 -27.81640625 29.54296875 C-28.80640625 30.03796875 -28.80640625 30.03796875 -29.81640625 30.54296875 C-34.39966967 30.9415134 -36.30708278 30.42942528 -39.81640625 27.54296875 C-36.97236458 36.4723063 -34.34691067 43.17552148 -25.73046875 47.73046875 C-22.50259435 49.1006685 -19.24413721 49.82134118 -15.81640625 50.54296875 C-15.81640625 51.20296875 -15.81640625 51.86296875 -15.81640625 52.54296875 C-23.8016671 52.33964035 -28.94306364 50.17568286 -34.765625 44.71484375 C-41.63222694 37.40198466 -43.492784 30.79363728 -43.2265625 20.79296875 C-42.27145385 13.22486969 -38.34310985 7.08883732 -32.7421875 2.015625 C-23.16799781 -5.30581418 -10.46514756 -6.13474167 0 0 Z " fill="#AA2525" transform="translate(46.81640625,7.45703125)"/>
<path d="M0 0 C8.59690602 5.14071745 13.94153152 11.74982365 16.91796875 21.33203125 C18.80901574 31.16173094 17.22034146 40.59308425 11.6171875 48.89453125 C6.32533184 55.37544759 0.16586625 58.76502375 -7.6875 61.3828125 C-19.08674936 62.28704424 -27.53858943 61.03895859 -36.5 53.7578125 C-42.43994027 48.14378046 -46.18555523 40.92066218 -46.92578125 32.75390625 C-47.17358531 22.95912474 -45.34129663 15.19743185 -39.0625 7.5078125 C-29.08670072 -2.93589482 -13.19174363 -6.20532677 0 0 Z M-37.21484375 11.453125 C-42.83176494 18.81322863 -43.78508343 26.27400155 -42.6875 35.3828125 C-40.70523874 43.04208235 -35.83356548 49.67571428 -29.22265625 53.9921875 C-24.66409977 56.43255759 -20.97349815 58.07833857 -15.6875 57.3828125 C-15.3575 56.7228125 -15.0275 56.0628125 -14.6875 55.3828125 C-14.3575 56.0428125 -14.0275 56.7028125 -13.6875 57.3828125 C-7.46890998 58.20104803 -2.75103564 55.72989538 2.3125 52.3828125 C9.14145115 46.42907263 12.590654 40.43647556 13.65625 31.5 C14.03664741 24.06323073 12.70266434 18.4434802 8.3125 12.3828125 C2.87339168 6.41504318 -2.65528986 1.92417496 -10.8828125 1.0390625 C-21.74760586 0.56974097 -29.83131017 3.31901945 -37.21484375 11.453125 Z " fill="#A92222" transform="translate(46.6875,2.6171875)"/>
<path d="M0 0 C8.3693541 1.19562201 13.09646528 3.26077766 18.375 9.875 C22.79422757 16.29969225 23.30932606 22.42151141 23 30 C21.41870971 30.22331199 19.83478911 30.42804644 18.25 30.625 C16.92742188 30.79902344 16.92742188 30.79902344 15.578125 30.9765625 C12.73650633 31.0023954 11.35162451 30.55715677 9 29 C8 27 8 27 8.1875 24.5625 C8.27269996 21.8914217 8.27269996 21.8914217 6.25 20.25 C3.81546905 18.77031786 3.81546905 18.77031786 0 18 C0 12.06 0 6.12 0 0 Z " fill="#A92323" transform="translate(35,7)"/>
<path d="M0 0 C8.12106859 0 13.9004553 2.7380007 19.875 8.25 C25.81799587 14.78308056 27.68207974 21.31711778 27.3046875 30.0859375 C26.31002419 39.59899943 22.18849455 45.67457904 15 52 C9.73162117 55.36518779 6.36120057 56 0 56 C0 49.73 0 43.46 0 37 C0.66 37 1.32 37 2 37 C2 42.28 2 47.56 2 53 C12.86633211 49.62384188 12.86633211 49.62384188 20.46875 41.55078125 C24.36457727 33.79159193 25.21171845 27.70835736 22.875 19.375 C20.40129054 12.81279852 16.77413036 8.56144304 10.375 5.625 C7.56881279 4.49267884 4.96037481 3.7400937 2 3 C2 8.28 2 13.56 2 19 C1.34 19 0.68 19 0 19 C0 12.73 0 6.46 0 0 Z " fill="#F3E1E1" transform="translate(33,4)"/>
<path d="M0 0 C0 0.66 0 1.32 0 2 C-0.78503906 2.21914062 -1.57007812 2.43828125 -2.37890625 2.6640625 C-10.385915 5.08090195 -15.7915678 7.68521187 -20.8125 14.4375 C-24.13701774 21.61145932 -25.5834709 28.48245066 -22.9375 36.03125 C-19.89046852 42.72147129 -16.67959855 47.67187834 -10 51 C-6.70936281 52.22693758 -3.41870683 53.20136767 0 54 C0 54.66 0 55.32 0 56 C-7.98526085 55.7966716 -13.12665739 53.63271411 -18.94921875 48.171875 C-25.81582069 40.85901591 -27.67637775 34.25066853 -27.41015625 24.25 C-26.45336007 16.66852929 -22.51613663 10.59575336 -16.95703125 5.47265625 C-11.82072175 1.60760898 -6.5038468 -0.66706121 0 0 Z " fill="#F3E1E1" transform="translate(31,4)"/>
<path d="M0 0 C1.32 0.66 2.64 1.32 4 2 C4 4.97 4 7.94 4 11 C2.39884424 11.2493357 0.79379841 11.47378648 -0.8125 11.6875 C-1.70582031 11.81511719 -2.59914063 11.94273438 -3.51953125 12.07421875 C-6 12 -6 12 -7.80078125 10.70703125 C-9.64094864 8.08763988 -9.38867844 6.10942752 -9 3 C-6.77775974 -0.70373377 -4.03328709 -0.41155991 0 0 Z " fill="#AD2C2C" transform="translate(54,26)"/>
<path d="M0 0 C6.4 -0.36923077 6.4 -0.36923077 9.4375 1.5 C9.953125 1.995 10.46875 2.49 11 3 C10.6875 6.375 10.6875 6.375 10 10 C6.3558226 12.4294516 4.28758728 12.16179575 0 12 C0 8.04 0 4.08 0 0 Z " fill="#F4E5E5" transform="translate(33,26)"/>
<path d="M0 0 C0.99 0 1.98 0 3 0 C3.67354499 1.43429001 4.33859701 2.87257057 5 4.3125 C5.556875 5.51326172 5.556875 5.51326172 6.125 6.73828125 C7 9 7 9 7 12 C6.34 12 5.68 12 5 12 C5 11.01 5 10.02 5 9 C2.02934491 9.34227572 2.02934491 9.34227572 -1 10 C-1.33 10.66 -1.66 11.32 -2 12 C-2.66 12 -3.32 12 -4 12 C-3.33501617 7.61110675 -1.81242323 4.0188515 0 0 Z " fill="#E1B4B4" transform="translate(24,26)"/>
<path d="M0 0 C0.33 0.99 0.66 1.98 1 3 C-0.98 3 -2.96 3 -5 3 C-5.33 4.65 -5.66 6.3 -6 8 C-3.23735711 8.59732819 -0.83967231 9 2 9 C2 9.66 2 10.32 2 11 C-0.79870027 12.39935013 -2.90498792 12.25265405 -6 12 C-7.875 10.875 -7.875 10.875 -9 9 C-9.39365568 5.85075452 -9.52854531 3.88090884 -7.875 1.125 C-5.21965017 -0.4682099 -3.03210482 -0.20214032 0 0 Z " fill="#F0D9D9" transform="translate(54,26)"/>
<path d="M0 0 C0.33 0.99 0.66 1.98 1 3 C-0.98 3 -2.96 3 -5 3 C-5.33 4.65 -5.66 6.3 -6 8 C-3.23735711 8.59732819 -0.83967231 9 2 9 C2 9.66 2 10.32 2 11 C-0.79870027 12.39935013 -2.90498792 12.25265405 -6 12 C-7.875 10.875 -7.875 10.875 -9 9 C-9.39365568 5.85075452 -9.52854531 3.88090884 -7.875 1.125 C-5.21965017 -0.4682099 -3.03210482 -0.20214032 0 0 Z " fill="#F0D9D9" transform="translate(17,26)"/>
<path d="M0 0 C0.66 0 1.32 0 2 0 C2 5.61 2 11.22 2 17 C3.32 17 4.64 17 6 17 C6 17.66 6 18.32 6 19 C4.02 19 2.04 19 0 19 C0 12.73 0 6.46 0 0 Z " fill="#F5E6E6" transform="translate(33,41)"/>
<path d="M0 0 C1.66611905 -0.042721 3.33382885 -0.04063832 5 0 C6 1 6 1 6.125 4 C6 7 6 7 5 8 C3.33382885 8.04063832 1.66611905 8.042721 0 8 C0 5.36 0 2.72 0 0 Z " fill="#AD2C2C" transform="translate(35,28)"/>
<path d="M0 0 C1.98 0 3.96 0 6 0 C6 0.66 6 1.32 6 2 C4.68 2 3.36 2 2 2 C2 7.61 2 13.22 2 19 C1.34 19 0.68 19 0 19 C0 12.73 0 6.46 0 0 Z " fill="#F5E6E6" transform="translate(33,4)"/>
<path d="M0 0 C3.875 0.875 3.875 0.875 5 2 C4.71269945 4.33944736 4.38063221 6.6739143 4 9 C2.35 9.66 0.7 10.32 -1 11 C-1.66 10.34 -2.32 9.68 -3 9 C-1.68 8.67 -0.36 8.34 1 8 C1.20970559 3.85906302 1.20970559 3.85906302 0 0 Z " fill="#EED3D3" transform="translate(39,27)"/>
<path d="M0 0 C-2.66874058 3.45366427 -5.82089913 4.19350685 -10 5 C-12.22265625 4.04296875 -12.22265625 4.04296875 -14 3 C-12.23358317 2.3012307 -10.46167336 1.61633417 -8.6875 0.9375 C-7.20830078 0.36322266 -7.20830078 0.36322266 -5.69921875 -0.22265625 C-3 -1 -3 -1 0 0 Z " fill="#ECD0D0" transform="translate(49,54)"/>
<path d="M0 0 C0.33 0.66 0.66 1.32 1 2 C2.65 2 4.3 2 6 2 C6 1.34 6 0.68 6 0 C6.66 0 7.32 0 8 0 C8.33 1.98 8.66 3.96 9 6 C8.34 6 7.68 6 7 6 C7 5.01 7 4.02 7 3 C4.02934491 3.34227572 4.02934491 3.34227572 1 4 C0.67 4.66 0.34 5.32 0 6 C-0.66 6 -1.32 6 -2 6 C-1.125 1.125 -1.125 1.125 0 0 Z " fill="#F2DFDF" transform="translate(22,32)"/>
<path d="M0 0 C1.9375 1.625 1.9375 1.625 3 3 C-0.77865693 4.25955231 -2.03411786 3.48087189 -5.6875 2.0625 C-6.68136719 1.68222656 -7.67523438 1.30195313 -8.69921875 0.91015625 C-9.45847656 0.60980469 -10.21773437 0.30945313 -11 0 C-6.77159835 -2.48128185 -4.56425885 -1.74271702 0 0 Z " fill="#ECD1D1" transform="translate(46,7)"/>
<path d="M0 0 C0.66 0.99 1.32 1.98 2 3 C0.6823614 6.68938809 -0.82705803 9.74058705 -3 13 C-3.85637238 10.07406105 -4.38673104 7.91825712 -3.17578125 5.04296875 C-2.17852152 3.32488268 -1.09427085 1.65798613 0 0 Z " fill="#EDD3D3" transform="translate(9,15)"/>
<path d="M0 0 C2.97 0.33 5.94 0.66 9 1 C9 1.66 9 2.32 9 3 C6.03 2.67 3.06 2.34 0 2 C0 1.34 0 0.68 0 0 Z " fill="#EED5D5" transform="translate(22,57)"/>
<path d="M0 0 C2.25245881 2.68841859 3.88213958 4.64641875 5 8 C4.01 8 3.02 8 2 8 C0.25 6.25 0.25 6.25 -1 4 C-0.6875 1.75 -0.6875 1.75 0 0 Z " fill="#EED5D5" transform="translate(8,42)"/>
<path d="M0 0 C0 0.66 0 1.32 0 2 C-2.64 2.66 -5.28 3.32 -8 4 C-8.33 3.01 -8.66 2.02 -9 1 C-5.8035914 -0.06546953 -3.34252724 -0.07427838 0 0 Z " fill="#EACACA" transform="translate(31,4)"/>
<path d="M0 0 C0.33 0 0.66 0 1 0 C1.125 7.625 1.125 7.625 0 11 C-0.66 11 -1.32 11 -2 11 C-1 3.57142857 -1 3.57142857 0 0 Z " fill="#F6EAEA" transform="translate(58,33)"/>
<path d="M0 0 C0.99 0.33 1.98 0.66 3 1 C-0.465 3.97 -0.465 3.97 -4 7 C-3.04065919 3.16263678 -2.76390737 2.40339772 0 0 Z " fill="#F7EDED" transform="translate(14,10)"/>
</svg>
