<?xml version="1.0" encoding="UTF-8"?>
<svg version="1.1" xmlns="http://www.w3.org/2000/svg" width="64" height="58">
<path d="M0 0 C21.12 0 42.24 0 64 0 C64 19.14 64 38.28 64 58 C42.88 58 21.76 58 0 58 C0 38.86 0 19.72 0 0 Z " fill="#FDFDFD" transform="translate(0,0)"/>
<path d="M0 0 C3.82792868 1.5595265 6.36359864 3.83631836 9 7 C9.19996304 10.1994086 7.75849685 11.28719293 5.6875 13.75 C3 16 3 16 -1 16 C0.875 12.125 0.875 12.125 2 11 C-9.385 10.505 -9.385 10.505 -21 10 C-21 9.01 -21 8.02 -21 7 C-13.41 6.67 -5.82 6.34 2 6 C1.01 5.01 0.02 4.02 -1 3 C-0.67 2.01 -0.34 1.02 0 0 Z " fill="#171717" transform="translate(37,28)"/>
<path d="M0 0 C-1.875 3.875 -1.875 3.875 -3 5 C4.59 5.33 12.18 5.66 20 6 C20 6.99 20 7.98 20 9 C12.41 9.33 4.82 9.66 -3 10 C-2.01 10.99 -1.02 11.98 0 13 C-0.33 13.99 -0.66 14.98 -1 16 C-4.82352106 14.4422692 -7.29205593 12.08404742 -10 9 C-10 6 -10 6 -8.57421875 4.39453125 C-7.95160156 3.87246094 -7.32898438 3.35039062 -6.6875 2.8125 C-6.07261719 2.28269531 -5.45773438 1.75289062 -4.82421875 1.20703125 C-3 0 -3 0 0 0 Z " fill="#131313" transform="translate(26,12)"/>
<path d="M0 0 C0.33 0 0.66 0 1 0 C1 2.31 1 4.62 1 7 C-0.65 7 -2.3 7 -4 7 C-2.68 4.69 -1.36 2.38 0 0 Z " fill="#ECECEC" transform="translate(63,51)"/>
</svg>
